<svg xmlns="http://www.w3.org/2000/svg" xmlns:svg="http://www.w3.org/2000/svg" xmlns:xlink="http://www.w3.org/1999/xlink" id="Layer_1" width="30" height="51.212" x="0" y="0" enable-background="new 302.904 336.28 30 51.212" version="1.1" viewBox="302.904 336.28 30 51.212" xml:space="preserve"><path fill="#a0a0a0" d="M307.29,387.492c1.121,0,2.242-0.429,3.1-1.286l21.23-21.221c0.824-0.82,1.285-1.938,1.285-3.1	c0-1.162-0.461-2.276-1.285-3.1l-21.23-21.221c-0.855-0.855-1.977-1.285-3.1-1.285c-1.118,0-2.241,0.425-3.1,1.285	c-1.714,1.714-1.714,4.49,0,6.199l18.13,18.121l-18.13,18.121c-1.714,1.71-1.714,4.485,0,6.199	C305.047,387.063,306.168,387.492,307.29,387.492L307.29,387.492z"/></svg>